<svg width="256" height="288" viewBox="0 0 256 288" fill="none" xmlns="http://www.w3.org/2000/svg">
<g opacity="0.8" clip-path="url(#clip0_7_4494)">
<path d="M177.998 2.98875H179.641V0.12675C179.358 0.08775 178.383 0 177.247 0C174.878 0 173.255 1.49025 173.255 4.22925V6.75H170.641V9.9495H173.255V18H176.461V9.95025H178.969L179.368 6.75075H176.46V4.5465C176.461 3.62175 176.71 2.98875 177.998 2.98875Z" fill="white"/>
</g>
<g opacity="0.8" clip-path="url(#clip1_7_4494)">
<path d="M214.375 0H207.625C204.519 0 202 2.51888 202 5.625V12.375C202 15.4811 204.519 18 207.625 18H214.375C217.481 18 220 15.4811 220 12.375V5.625C220 2.51888 217.481 0 214.375 0ZM218.312 12.375C218.312 14.5463 216.546 16.3125 214.375 16.3125H207.625C205.454 16.3125 203.688 14.5463 203.688 12.375V5.625C203.688 3.45375 205.454 1.6875 207.625 1.6875H214.375C216.546 1.6875 218.312 3.45375 218.312 5.625V12.375Z" fill="white"/>
<path d="M211 4.5C208.515 4.5 206.5 6.51487 206.5 9C206.5 11.4851 208.515 13.5 211 13.5C213.485 13.5 215.5 11.4851 215.5 9C215.5 6.51487 213.485 4.5 211 4.5ZM211 11.8125C209.45 11.8125 208.188 10.5503 208.188 9C208.188 7.44863 209.45 6.1875 211 6.1875C212.55 6.1875 213.812 7.44863 213.812 9C213.812 10.5503 212.55 11.8125 211 11.8125Z" fill="white"/>
<path d="M215.838 4.76212C216.169 4.76212 216.438 4.49365 216.438 4.16249C216.438 3.83133 216.169 3.56287 215.838 3.56287C215.507 3.56287 215.238 3.83133 215.238 4.16249C215.238 4.49365 215.507 4.76212 215.838 4.76212Z" fill="white"/>
</g>
<g opacity="0.8" clip-path="url(#clip2_7_4494)">
<path d="M256 3.41887C255.331 3.7125 254.617 3.90712 253.874 4.00162C254.639 3.54487 255.223 2.82712 255.497 1.962C254.784 2.38725 253.996 2.68763 253.157 2.85525C252.48 2.13413 251.515 1.6875 250.462 1.6875C248.419 1.6875 246.774 3.34575 246.774 5.37863C246.774 5.67113 246.799 5.95237 246.859 6.22012C243.792 6.0705 241.077 4.60013 239.253 2.36025C238.935 2.91263 238.748 3.54488 238.748 4.2255C238.748 5.5035 239.406 6.63637 240.387 7.29225C239.794 7.281 239.213 7.10888 238.72 6.83775V6.87825C238.72 8.6715 239.999 10.161 241.676 10.5041C241.376 10.5863 241.049 10.6256 240.709 10.6256C240.473 10.6256 240.234 10.6121 240.01 10.5626C240.488 12.024 241.845 13.0984 243.459 13.1332C242.203 14.1154 240.609 14.7071 238.883 14.7071C238.581 14.7071 238.29 14.6936 238 14.6565C239.635 15.7106 241.572 16.3125 243.661 16.3125C250.451 16.3125 254.164 10.6875 254.164 5.81175C254.164 5.64862 254.158 5.49113 254.15 5.33475C254.883 4.815 255.498 4.16587 256 3.41887Z" fill="white"/>
</g>
<defs>
<clipPath id="clip0_7_4494">
<rect width="18" height="18" fill="white" transform="translate(166)"/>
</clipPath>
<clipPath id="clip1_7_4494">
<rect width="18" height="18" fill="white" transform="translate(202)"/>
</clipPath>
<clipPath id="clip2_7_4494">
<rect width="18" height="18" fill="white" transform="translate(238)"/>
</clipPath>
</defs>
</svg>
