<svg width="26" height="26" viewBox="0 0 26 26" fill="none" xmlns="http://www.w3.org/2000/svg">
<path fill-rule="evenodd" clip-rule="evenodd" d="M11.2252 3.44405C10.1968 3.44432 9.4282 3.94266 9.4282 4.38791C9.4282 4.83343 10.1968 5.33149 11.2252 5.33176C12.2535 5.33176 13.0219 4.83343 13.0219 4.38791C13.0219 3.94238 12.2535 3.44405 11.2252 3.44405ZM11.6228 7.19103C7.68538 7.1913 7.14263 7.80203 7.14263 8.46178C7.14263 9.48553 8.64982 10.0047 11.6228 10.005C13.7656 10.005 15.2766 9.91534 16.378 9.72305C17.7043 9.49122 18.1767 9.14509 18.1767 8.89809C18.1767 8.20178 15.6235 7.19103 11.6228 7.19103ZM16.4888 11.7841C12.494 11.7841 8.96209 12.5389 7.89961 13.6193C7.70136 13.8208 7.60684 14.0168 7.61009 14.2183C7.63826 15.8748 14.2997 15.8748 16.4888 15.8748C21.0098 15.8745 22.6143 14.6755 22.6143 13.6488C22.6143 12.4466 20.4389 11.7844 16.4888 11.7841ZM10.5592 17.6514C5.93282 17.6517 3.38509 18.4482 3.38509 19.8945C3.38509 21.8591 7.24961 22.5559 10.5592 22.5559C17.6271 22.5559 20.9199 21.3678 20.9199 20.5645C20.9199 19.4406 16.1784 17.6514 10.5592 17.6514ZM10.5592 23.6393C5.38845 23.6393 2.30176 22.2393 2.30176 19.8945C2.30176 16.9085 7.31082 16.603 9.81278 16.5719C7.86034 16.2133 6.5487 15.5305 6.52676 14.237C6.51836 13.7368 6.7204 13.2737 7.12692 12.8601C7.98736 11.9851 9.71853 11.4198 11.6572 11.0883H11.6228C10.2467 11.0883 6.0593 11.0878 6.0593 8.46178C6.0593 6.78261 7.77584 6.29295 9.79842 6.15726C8.9239 5.81276 8.34486 5.15653 8.34486 4.38791C8.34486 3.25149 9.60993 2.36099 11.2252 2.36072C12.8402 2.36072 14.1052 3.25122 14.1052 4.38791C14.1052 5.14191 13.5487 5.7873 12.7026 6.13668C15.4288 6.27778 19.26 6.96516 19.26 8.89809C19.26 9.83409 18.4505 10.3869 17.0394 10.7029C19.1866 10.7238 23.6976 10.961 23.6976 13.6488C23.6976 14.6438 22.9951 16.9578 16.4888 16.9581C16.0108 16.9581 15.5341 16.9565 15.0623 16.9508C18.691 17.5485 22.0033 18.819 22.0033 20.5645C22.0033 21.6971 20.7317 22.5021 18.1152 23.0258C16.1381 23.4215 13.4544 23.6393 10.5592 23.6393Z" fill="white"/>
</svg>
